<svg width="512" height="512" viewBox="0 0 512 512" xmlns="http://www.w3.org/2000/svg" xmlns:xlink="http://www.w3.org/1999/xlink"><defs><clipPath id="clip-1"><rect x="0" y="0" width="512" height="512" fill-opacity="0" fill="#ffffff" stroke="none" stroke-width="1" stroke-linecap="butt"></rect></clipPath><linearGradient x1="187" y1="178" x2="187" y2="411.8972" gradientUnits="userSpaceOnUse" id="color-1"><stop offset="0" stop-color="#ff792e"></stop><stop offset="1" stop-color="#03ff49"></stop></linearGradient><linearGradient x1="325.0009" y1="100.0685" x2="325.0009" y2="333.9657" gradientUnits="userSpaceOnUse" id="color-2"><stop offset="0" stop-color="#03ff49"></stop><stop offset="1" stop-color="#2ec0ff"></stop></linearGradient><linearGradient x1="402.9667" y1="256" x2="109" y2="256" gradientUnits="userSpaceOnUse" id="color-3"><stop offset="0" stop-color="#2ec0ff"></stop><stop offset="1" stop-color="#ff792e"></stop></linearGradient></defs><g clip-path="url(#clip-1)" id="Logo" fill="none" fill-rule="nonzero" stroke="none" stroke-width="none" stroke-linecap="none" stroke-linejoin="miter" stroke-miterlimit="10" stroke-dasharray="" stroke-dashoffset="0" font-family="none" font-weight="none" font-size="none" text-anchor="none" style="mix-blend-mode: normal"><rect x="0" y="0" width="512" height="512" fill-opacity="0" fill="#ffffff" stroke="none" stroke-width="1" stroke-linecap="butt"></rect><path d="M305,100c0,-11.0457 8.9543,-20 20,-20c11.0457,0 20,8.9543 20,20c0,11.0457 -8.9543,20 -20,20c-11.0457,0 -20,-8.9543 -20,-20z" fill="#03ff49" stroke="#000000" stroke-width="0" stroke-linecap="round"></path><path d="M167,412c0,-11.0457 8.9543,-20 20,-20c11.0457,0 20,8.9543 20,20c0,11.0457 -8.9543,20 -20,20c-11.0457,0 -20,-8.9543 -20,-20z" fill="#03ff49" stroke="#000000" stroke-width="0" stroke-linecap="round"></path><path d="M109,256c-43.0782,0 -78,-34.9065 -78,-77.9657c0,-43.0593 34.9218,-77.9657 78,-77.9657c43.0782,0 78,34.9064 78,77.9657" fill-opacity="0" fill="#ffffff" stroke="#ff792e" stroke-width="40" stroke-linecap="butt"></path><rect x="167" y="178" width="40" height="233.8972" fill="url(#color-1)" stroke="#000000" stroke-width="0" stroke-linecap="butt"></rect><rect x="305.0009" y="100.0685" width="40" height="233.8972" fill="url(#color-2)" stroke="#000000" stroke-width="0" stroke-linecap="round"></rect><rect x="109" y="236" width="293.9667" height="40" fill="url(#color-3)" stroke="#000000" stroke-width="0" stroke-linecap="round"></rect><path d="M402.9667,256c43.0593,0 77.9658,34.9065 77.9658,77.9657c0,43.0593 -34.9065,77.9657 -77.9658,77.9657c-43.0593,0 -77.9657,-34.9065 -77.9657,-77.9657" fill-opacity="0" fill="#ffffff" stroke="#2ec0ff" stroke-width="40" stroke-linecap="butt"></path></g></svg>